<?xml version="1.0"?>
<!--Icons from directory ""-->
<svg xmlns="http://www.w3.org/2000/svg" width="72" height="178" viewBox="0 0 72 178"><svg xmlns:xlink="http://www.w3.org/1999/xlink" height="22" width="22" version="1.1" viewBox="0 0 22 22" id="arrow" y="0"><title>Group</title><desc>Created with Sketch.</desc><g id="arrow-Page-1" fill-rule="evenodd" fill="none"><g id="arrow-W-05" transform="translate(-216 -459)"><g id="arrow-Group-4" transform="translate(55 444)"><g id="arrow-Group" transform="translate(161 15)"><circle id="arrow-Oval-4" cy="11" cx="11" r="11" fill="#fff"/><polygon id="arrow-Triangle" transform="translate(12 11) rotate(90) translate(-12 -11)" points="12 7 18 15 6 15" fill="#00D984"/></g></g></g></g></svg><svg xmlns:xlink="http://www.w3.org/1999/xlink" height="14" width="11" version="1.1" viewBox="0 0 11 14" id="arrow2" y="22"><title>Path 2</title><desc>Created with Sketch.</desc><g id="arrow2-Page-1" fill-rule="evenodd" fill="none"><g id="arrow2-W-15" stroke="#fff" stroke-width="2.5" transform="translate(-261 -451)"><g id="arrow2-Group-4" transform="translate(39 432)"><polyline id="arrow2-Path-2" points="223 20 231 26 223 32"/></g></g></g></svg><svg xmlns:xlink="http://www.w3.org/1999/xlink" height="28" width="28" version="1.1" viewBox="0 0 28 28" id="no" y="36"><title>Shape</title><desc>Created with Sketch.</desc><g id="no-Page-1" fill-rule="evenodd" fill="none"><g id="no-W-07" fill="#CA4646" transform="translate(-96 -457)"><g id="no-No" transform="translate(77 438)"><polygon id="no-Shape" points="45.252 43.132 46.275 44.155 44.23 46.2 43.207 45.177 33.037 35.008 22.868 45.177 21.845 46.2 19.8 44.155 20.823 43.132 30.992 32.963 20.897 22.868 19.875 21.845 21.92 19.8 22.942 20.823 33.037 30.918 43.132 20.823 44.155 19.8 46.2 21.845 45.177 22.868 35.082 32.963"/></g></g></g></svg><svg xmlns:xlink="http://www.w3.org/1999/xlink" height="18" width="18" version="1.1" viewBox="0 0 18 18" id="send" y="64"><title>Combined Shape</title><desc>Created with Sketch.</desc><g id="send-Page-1" fill-rule="evenodd" fill="none"><g id="send-W-11" fill="#fff" transform="translate(-252 -466)"><g id="send-Name" transform="translate(38 457)"><g id="send-Group" transform="translate(201.93)"><path id="send-Combined-Shape" d="m12.427 19.034v7.134l17.215-8.136-17.215-8.1354v7.1344l11.125 1.001-11.125 1.002z"/></g></g></g></g></svg><svg xmlns:xlink="http://www.w3.org/1999/xlink" height="72" width="72" version="1.1" viewBox="0 0 72 72" id="timer" y="82"><title>Page 1</title><desc>Created with Sketch.</desc><g id="timer-Page-1" fill-rule="evenodd" fill="none"><g id="timer-W-15" fill="#fff" transform="translate(-123 -152)"><g id="timer-Page-1" style="mix-blend-mode:overlay" transform="translate(123 152)"><path id="timer-Fill-1" d="m18.331 20.73c2.419 1.602 17.432 14.399 17.432 14.399 1.637 1.871 1.446 4.741-0.425 6.378-1.871 1.638-4.741 1.447-6.378-0.424l-10.629-20.353zm17.669 45.461c-16.648 0-30.191-13.543-30.191-30.191-0.0004-7.534 2.7798-14.427 7.36-19.722l2.502 1.382c-4.39 4.859-7.0718 11.29-7.0718 18.34 0 15.109 12.291 27.4 27.401 27.4 15.109 0 27.4-12.291 27.4-27.4 0-14.563-11.419-26.503-25.772-27.348v14.365h-3.256v-14.365-2.7987c0.539-0.0286 1.081-0.0447 1.628-0.0447 16.648 0 30.191 13.543 30.191 30.191s-13.543 30.191-30.191 30.191zm0-66.191c-19.882 0-36 16.118-36 36s16.118 36 36 36 36-16.118 36-36-16.118-36-36-36z"/></g></g></g></svg><svg xmlns:xlink="http://www.w3.org/1999/xlink" height="24" width="31" version="1.1" viewBox="0 0 31 24" id="yes" y="154"><title>Shape</title><desc>Created with Sketch.</desc><g id="yes-Page-1" fill-rule="evenodd" fill="none"><g id="yes-W-07" fill="#fff" transform="translate(-196 -459)"><g id="yes-Yes" transform="translate(178 438)"><polyline id="yes-Shape" points="42.372 39.933 34.943 47.207 33.725 48.4 31.288 46.014 32.506 44.821 39.935 37.547 23.218 21.179 22 19.986 24.437 17.6 25.655 18.793 42.372 35.161 44.808 37.547" transform="translate(33.404 33) rotate(90) translate(-33.404 -33)"/></g></g></g></svg></svg>
