<?xml version="1.0" encoding="utf-8"?>
<!-- Generator: Adobe Illustrator 21.0.0, SVG Export Plug-In . SVG Version: 6.00 Build 0)  -->
<svg version="1.1" id="Ñëîé_1" xmlns="http://www.w3.org/2000/svg" xmlns:xlink="http://www.w3.org/1999/xlink" x="0px" y="0px"
	 viewBox="0 0 295.1 226.9" style="enable-background:new 0 0 295.1 226.9;" xml:space="preserve">
<style type="text/css">
	.st0{fill:#B1EF89;}
	.st1{fill:#E7F9DC;}
</style>
<g>
	<path class="st0" d="M294.9,106.1c-0.9-16.6-4.1-32.2-8.9-44c-2.8-6.6-6.6-12.4-11.4-17.2c-4.3-4.3-9.5-7.9-15.5-10.7
		c-11.7-5.5-24.6-7.3-34.6-8.2c-7.1-0.7-13.9-1.1-20.4-1.4c1.8,2.9,3.4,6,4.7,9.3c5.3,12.8,8.7,29.6,9.7,47.4
		c0.2,3.9,0.2,7.9,0,11.8c-1,17.8-4.4,34.6-9.7,47.4c-3.3,7.9-7.9,14.9-13.7,20.6c-5.2,5.1-11.4,9.4-18.4,12.7
		c-13.1,6.1-27.2,8.1-38.1,9.1c-8.2,0.8-15.9,1.3-23.3,1.5c2.4,1.6,4.9,3,7.6,4.2c11.7,5.5,24.6,7.3,34.6,8.2
		c12,1.1,22.9,1.7,33.2,1.7h0.4c4.6,0,9.2-0.1,14.1-0.3c1.1-0.1,2.2,0.3,3.2,0.9l39.4,27c0.7,0.5,1.5,0.7,2.3,0.7h0
		c2.1,0,3.8-1.6,4-3.6l3.6-32.7c0.1-0.8,0.6-1.5,1.3-1.8c5.1-2.4,9.5-5.2,13.4-8.7c5.9-5.2,10.4-11.7,13.6-19.3
		c4.9-11.7,8-27.3,8.9-44C295.1,113.3,295.1,109.7,294.9,106.1z"/>
	<path class="st1" d="M172.2,164.4c6-2.8,11.2-6.4,15.5-10.7c4.8-4.8,8.7-10.6,11.4-17.2c4.9-11.7,8-27.3,8.9-44
		c0.2-3.5,0.2-7.1,0-10.7c-0.9-16.6-4.1-32.2-8.9-44c-2.8-6.6-6.6-12.4-11.4-17.2c-4.3-4.3-9.5-7.9-15.5-10.7
		c-11.7-5.5-24.6-7.3-34.6-8.2c-12-1.1-22.9-1.7-33.2-1.7h-0.4C93.5,0,82.6,0.6,70.7,1.7c-10,1-23,2.7-34.6,8.2
		c-6,2.8-11.2,6.4-15.5,10.7c-4.8,4.8-8.7,10.6-11.4,17.2c-4.9,11.7-8,27.3-8.9,44C0,85.3,0,88.9,0.1,92.5c0.9,16.6,4.1,32.2,8.9,44
		c3.2,7.6,7.7,14.1,13.6,19.3c3.9,3.5,8.3,6.3,13.4,8.7c0.7,0.3,1.2,1,1.3,1.8l3.6,32.7c0.2,2.1,2,3.6,4,3.6h0
		c0.8,0,1.6-0.2,2.3-0.7l39.4-27c0.9-0.6,1.9-0.9,2.9-0.9c0.1,0,0.2,0,0.2,0c4.8,0.2,9.4,0.3,14.1,0.3h0.4c10.4,0,21.3-0.6,33.2-1.7
		C147.6,171.6,160.6,169.8,172.2,164.4z M104.4,162.4h-0.4c-4.5,0-8.9-0.1-13.5-0.3c-0.3,0-0.5,0-0.8,0c-3.5,0-6.8,1-9.7,3
		l-28.6,19.6l-2.1-19.7c-0.5-4.9-3.6-9.2-8.1-11.3c-4-1.9-7.5-4.1-10.6-6.8c-4.5-4-8-9-10.5-14.9c-4.4-10.5-7.2-24.7-8.1-40.1
		c-0.2-3.1-0.2-6.3,0-9.4c0.8-15.3,3.7-29.5,8.1-40.1c2.1-5.2,5.1-9.7,8.8-13.4c3.3-3.3,7.4-6.1,12.2-8.4c10-4.7,21.7-6.3,30.7-7.1
		c11.6-1.1,22.1-1.6,32.1-1.6h0.4c10,0,20.5,0.5,32.1,1.6c9,0.9,20.7,2.5,30.7,7.1c4.7,2.2,8.8,5,12.2,8.4c3.7,3.7,6.7,8.2,8.8,13.4
		c4.4,10.5,7.2,24.7,8.1,40.1c0.2,3.1,0.2,6.3,0,9.4c-0.8,15.3-3.7,29.5-8.1,40.1c-2.1,5.2-5.1,9.7-8.8,13.4
		c-3.3,3.3-7.4,6.1-12.2,8.4c-10,4.7-21.7,6.3-30.7,7.1C124.9,161.8,114.4,162.4,104.4,162.4z"/>
</g>
</svg>
